<?xml version="1.0" encoding="UTF-8"?>
<svg width="200px" height="200px" viewBox="0 0 200 200" version="1.1" xmlns="http://www.w3.org/2000/svg" xmlns:xlink="http://www.w3.org/1999/xlink">
    <!-- Generator: Sketch 45.2 (43514) - http://www.bohemiancoding.com/sketch -->
    <title>icon-labels</title>
    <desc>Created with Sketch.</desc>
    <defs>
        <polygon id="path-1" points="0.894012744 39.1980562 64.6478922 39.1980562 64.6478922 0.49034366 0.894012744 0.49034366"></polygon>
    </defs>
    <g id="signed-out" stroke="none" stroke-width="1" fill="none" fill-rule="evenodd">
        <g id="icon-labels">
            <g id="labels" transform="translate(39.000000, 47.000000)">
                <circle id="Oval" fill="#9013FE" opacity="0.0599999987" cx="60.9782715" cy="53.5" r="53.5"></circle>
                <g id="subpop" transform="translate(0.478271, 13.000000)">
                    <path d="M7.27720728,13.8785039 C7.27720728,17.3205629 17.9247557,17.5918421 17.9247557,13.60755 C17.9247557,8.61978472 7.52148873,12.8483584 7.96353731,8.41648791 C8.18700117,6.18054828 10.5075123,5.69231066 12.8072058,5.69231066 C17.2524125,5.69231066 17.144096,8.18619328 17.144096,8.18619328" id="Stroke-1" stroke="#935DC3" stroke-width="1.5"></path>
                    <polyline id="Stroke-3" stroke="#935DC3" stroke-width="1.5" points="21.9419007 8.99938052 24.0561875 11.4659401 21.9419007 13.8511809"></polyline>
                    <polyline id="Stroke-5" stroke="#935DC3" stroke-width="1.5" points="23.0803628 26.6538056 20.966076 29.1203651 23.0803628 31.5056059"></polyline>
                    <polyline id="Stroke-7" stroke="#935DC3" stroke-width="1.5" points="44.4344645 26.6538056 42.3201777 29.1203651 44.4344645 31.5056059"></polyline>
                    <polyline id="Stroke-9" stroke="#935DC3" stroke-width="1.5" points="43.3773211 8.99938052 45.4916079 11.4659401 43.3773211 13.8511809"></polyline>
                    <path d="M28.2034424,5.28571704 L28.2034424,13.8511809 C28.2034424,13.8511809 28.3387567,16.5281932 33.1908823,16.5281932 C38.043008,16.5281932 38.0156849,14.2174404 38.0156849,13.8511809 L38.0156849,5.50235012" id="Stroke-11" stroke="#935DC3" stroke-width="1.5"></path>
                    <path d="M49.7529042,6.28187141 L49.7529042,16.3722239 L57.3562049,16.3722239 C57.3562049,16.3722239 59.4522763,16.1822634 59.4522763,13.8513435 C59.4522763,10.9069551 55.3437291,10.89492 55.3437291,10.89492 C55.3437291,10.89492 59.0030716,10.7544012 59.0030716,8.76209249 C59.0030716,6.41913742 55.9737865,6.28187141 55.9737865,6.28187141 L49.7529042,6.28187141 Z" id="Stroke-13" stroke="#935DC3" stroke-width="1.5"></path>
                    <path d="M49.7569685,10.8938584 L55.3641955,10.8938584" id="stroke" stroke="#935DC3" stroke-width="1.5"></path>
                    <path d="M8.03639889,34.6214466 L8.03639889,24.5310941 L15.2331059,24.5310941 C15.2331059,24.5310941 17.2865664,24.6683601 17.2865664,27.0113152 C17.2865664,29.0036239 15.8260821,29.1441427 15.204807,29.1441427 C13.707892,29.1441427 11.1030906,29.1835009 8.03639889,29.1835009" id="Stroke-17" stroke="#935DC3" stroke-width="1.5"></path>
                    <path d="M49.1296775,34.6214466 L49.1296775,24.5310941 L56.3263845,24.5310941 C56.3263845,24.5310941 58.3798449,24.6683601 58.3798449,27.0113152 C58.3798449,29.0036239 56.9193607,29.1441427 56.2980856,29.1441427 C54.8011706,29.1441427 52.1963692,29.1835009 49.1296775,29.1835009" id="Stroke-19" stroke="#935DC3" stroke-width="1.5"></path>
                    <path d="M32.6489744,24.2329797 C32.6489744,24.2329797 38.5039225,24.0703422 38.5039225,29.5765957 C38.5039225,34.0995431 33.6462672,34.4628751 33.0393042,34.4628751 C32.4323413,34.4628751 27.0379824,34.4794642 27.0379824,29.2204196 C27.0379824,24.1243379 32.6489744,24.2329797 32.6489744,24.2329797 Z" id="Stroke-21" stroke="#935DC3" stroke-width="1.5"></path>
                    <mask id="mask-2" fill="white">
                        <use xlink:href="#path-1"></use>
                    </mask>
                    <g id="Clip-24"></g>
                    <polygon id="Stroke-23" stroke="#935DC3" stroke-width="1.5" mask="url(#mask-2)" points="1.77485716 37.8945253 63.9023621 37.8945253 63.9023621 0.813187238 1.77485716 0.813187238"></polygon>
                    <path d="M2.40250917,20.1670435 L63.9526986,20.1670435" id="Stroke-25" stroke="#935DC3" stroke-width="1.5" mask="url(#mask-2)"></path>
                </g>
                <g id="ninjatune" transform="translate(66.478271, 15.500488)">
                    <path d="M29.8397777,45.9639958 C23.8017325,50.3800942 18.0880766,52.8404212 17.0767187,51.4583968 C16.0662593,50.0768216 20.1413445,45.3763209 26.179839,40.9597732 C32.2169856,36.5432255 37.9310908,34.083797 38.9415501,35.4653722 C39.9524588,36.8473967 35.8773736,41.5478974 29.8397777,45.9639958 Z M60.9672284,20.2460297 C58.1789176,16.4337808 42.4163802,23.2198984 25.7597503,35.4033698 C9.10356961,47.5868412 -2.13953206,60.5543284 0.648778725,64.366128 C3.4375388,68.178377 19.2009748,61.3922594 35.858054,49.208788 C52.5142347,37.0253166 63.7564378,24.0582787 60.9672284,20.2460297 Z" id="Stroke-1" stroke="#935DC3" stroke-width="1.5"></path>
                    <path d="M20.4875695,39.4268762 L9.35454454,49.539108 L1.48742856,39.5423444 L14.2967647,39.5423444 C14.2967647,39.5423444 10.4777764,33.9261851 9.35454454,30.4441663 C8.23131268,26.9621475 8.9052518,22.4692201 8.9052518,22.4692201 L14.2967647,23.4801287 C14.2967647,23.4801287 21.2608023,7.64255946 28.0001935,6.29468123 L28.0001935,4.27286387 L24.8551443,4.27286387 L32.0712351,0.00458278601 L43.6131164,17.0777071 L45.5226106,16.5160912 L46.4211961,22.2445737 L35.9737918,28.5211934 L32.3192447,30.8485298 L20.4875695,39.4268762 Z" id="Stroke-3" stroke="#935DC3" stroke-width="1.5"></path>
                    <path d="M18.9018806,62.9054773 L21.8222834,67.8476975 C21.8222834,67.8476975 16.5430937,75.0363815 16.4307705,75.934967 C16.3184473,76.8335524 16.9923864,79.0800162 20.0251125,79.0800162 C23.0578385,79.0800162 25.191979,76.9458756 25.8659182,75.7103206 C26.5398573,74.4747655 24.9673327,71.7790091 25.8659182,70.3188076 C26.7645036,68.8586062 29.1232906,66.7747865 29.1232906,66.7747865 L23.8328685,58.750418 L18.9018806,62.9054773 Z" id="Stroke-5" stroke="#935DC3" stroke-width="1.5"></path>
                    <path d="M42.7143961,46.8432617 L33.0546021,53.5826529 L44.7362135,55.7167934 L37.4352064,61.4452759 C37.4352064,61.4452759 45.2978294,64.8149715 46.4210613,66.2751729 C47.5442931,67.7353743 50.0154032,66.8367888 50.6893424,66.2751729 C51.3632815,65.713557 49.3414641,62.9054773 48.4428786,62.4561846 C47.5442931,62.0068918 44.0622744,61.6699223 44.0622744,61.6699223 C44.0622744,61.6699223 53.0481293,56.1660861 55.7438857,57.6262876 C58.4396422,59.086489 42.7143961,46.8432617 42.7143961,46.8432617 Z" id="Stroke-7" stroke="#935DC3" stroke-width="1.5"></path>
                    <path d="M44.5545644,45.0460907 C44.5545644,45.0460907 50.5768844,45.7200298 52.9356713,47.7418472 C55.2944582,49.7636645 58.776477,55.9477299 60.1243552,56.9554935 C61.4722335,57.9632571 63.2694044,58.0755803 64.2803131,57.6262876 C65.2912218,57.1769948 66.3021305,54.8182079 65.1788986,52.9087137 C64.0556668,50.9992196 59.5627393,43.9228588 49.7906221,40.8901328 C45.8593106,44.035182 44.5545644,45.0460907 44.5545644,45.0460907 Z" id="Stroke-9" stroke="#935DC3" stroke-width="1.5"></path>
                    <path d="M38.9796502,25.2772099 C42.7986385,21.6828679 40.3558339,18.8747882 40.3558339,18.8747882 C40.3558339,18.8747882 34.6614976,22.2588612 32.6895517,23.5362005 C31.273381,22.626832 25.9002891,17.5323015 22.0813007,18.4025816 C19.9849008,24.430293 29.2605495,27.0325966 29.2605495,27.0325966 C29.2605495,27.0325966 31.4679248,27.7842634 32.9811427,26.7517887" id="Stroke-11" stroke="#935DC3" stroke-width="1.5"></path>
                    <path d="M18.0032951,11.6861043 L7.55723877,13.1463057 C7.55723877,13.1463057 5.08612867,13.9473947 3.73825043,18.1523255 C2.39037219,22.356807 8.1188547,16.0667086 10.702288,17.4145868 C13.2857213,18.7624651 13.6226908,20.0833857 13.6226908,20.0833857 L18.0032951,11.6861043 Z" id="Stroke-13" stroke="#935DC3" stroke-width="1.5"></path>
                    <path d="M18.8176382,25.6984218 C18.8176382,25.6984218 30.4152319,29.7420565 31.6224815,31.286725" id="Stroke-15" stroke="#935DC3" stroke-width="1.5"></path>
                    <path d="M29.1219876,24.1776557 C29.0173024,24.4216217 28.3101156,24.3519813 27.5427236,24.0217512 C26.774433,23.691521 26.2384268,23.2269523 26.3435613,22.9829863 C26.4486958,22.7394697 27.1540854,22.8082114 27.9228253,23.1388909 C28.6902173,23.4691211 29.2266728,23.9341391 29.1219876,24.1776557" id="Fill-17" fill="#935DC3"></path>
                    <path d="M38.4803511,22.7117483 C38.6331107,22.929206 38.2022389,23.493967 37.5179661,23.9738116 C36.8336932,24.4541056 36.1566091,24.6661717 36.0042988,24.4482648 C35.8519886,24.2312564 36.2815124,23.6669447 36.9671332,23.1866507 C37.6505074,22.7068061 38.3280409,22.4947399 38.4803511,22.7117483" id="Fill-19" fill="#935DC3"></path>
                    <path d="M28.9706209,42.8575408 C29.1233804,43.0749985 28.6925087,43.6397595 28.0082358,44.1196041 C27.323963,44.5998981 26.6468788,44.8119642 26.4945686,44.5940573 C26.3422583,44.3770489 26.7717822,43.8127372 27.4574029,43.3324432 C28.1407772,42.8525986 28.8183106,42.6405324 28.9706209,42.8575408" id="Fill-21" fill="#935DC3"></path>
                </g>
                <g id="crown" transform="translate(7.478271, 54.740651)">
                    <path d="M0.12577285,5.13580856 C1.84458462,4.80049814 16.4136085,19.8283414 15.3234094,34.2099637 C18.6772682,32.868722 35.1120065,31.8617846 37.7529849,34.4615094 C37.3756663,21.4648977 47.7307966,6.79123081 51.5039821,6.66570951 C39.6393261,13.3377077 33.9896096,24.4914955 34.8317846,21.9652221 C33.7835937,17.5216673 34.0218075,11.4870859 32.5125333,8.21699184 C30.080841,11.4030697 30.4581595,22.4710805 26.6049825,25.9927203 C22.5762266,23.519523 21.8635976,11.9901773 20.2285506,8.30075656 C18.5517469,12.4092525 18.2581931,20.123656 17.9228827,22.5550967 C16.623146,16.4342352 0.12577285,5.13580856 0.12577285,5.13580856 Z" id="Stroke-1" stroke="#935DC3" stroke-width="1.5" stroke-linejoin="round"></path>
                    <path d="M20.6896338,1.46726607 C20.6896338,2.27774631 20.032848,2.93453214 19.2223678,2.93453214 C18.4118875,2.93453214 17.7551017,2.27774631 17.7551017,1.46726607 C17.7551017,0.656785823 18.4118875,0 19.2223678,0 C20.032848,0 20.6896338,0.656785823 20.6896338,1.46726607" id="Fill-3" fill="#935DC3"></path>
                    <path d="M34.776193,1.46726607 C34.776193,2.27774631 34.1194072,2.93453214 33.308927,2.93453214 C32.4984467,2.93453214 31.8416609,2.27774631 31.8416609,1.46726607 C31.8416609,0.656785823 32.4984467,0 33.308927,0 C34.1194072,0 34.776193,0.656785823 34.776193,1.46726607" id="Fill-5" fill="#935DC3"></path>
                    <polyline id="Stroke-7" stroke="#935DC3" stroke-width="1.5" stroke-linecap="round" stroke-linejoin="round" points="50.3300183 5.70153484 42.9652633 12.9629046 48.1501233 6.03684526"></polyline>
                    <polyline id="Stroke-9" stroke="#935DC3" stroke-width="1.5" stroke-linecap="round" stroke-linejoin="round" points="2.41056244 4.52757106 10.7684199 13.4831011 5.30333799 5.70153484"></polyline>
                    <path d="M26.2575476,32.870684 C28.1730681,32.870684 37.3230429,34.2519215 37.2915997,35.1637747" id="Stroke-11" stroke="#935DC3" stroke-width="1.5" stroke-linecap="round" stroke-linejoin="round"></path>
                </g>
            </g>
        </g>
    </g>
</svg>