<?xml version="1.0" encoding="UTF-8"?>
<svg width="200px" height="200px" viewBox="0 0 200 200" version="1.1" xmlns="http://www.w3.org/2000/svg" xmlns:xlink="http://www.w3.org/1999/xlink">
    <!-- Generator: Sketch 45.2 (43514) - http://www.bohemiancoding.com/sketch -->
    <title>icon-fans</title>
    <desc>Created with Sketch.</desc>
    <defs></defs>
    <g id="signed-out" stroke="none" stroke-width="1" fill="none" fill-rule="evenodd">
        <g id="icon-fans">
            <circle id="Oval" fill="#3DAECC" opacity="0.100000001" cx="99.9808868" cy="100.5" r="53.5"></circle>
            <g id="phone" transform="translate(152.753811, 96.750462) rotate(7.000000) translate(-152.753811, -96.750462) translate(136.753811, 69.250462)" stroke="#619AAA" stroke-width="1.5">
                <path d="M31.1211806,51.8829823 C31.1211806,53.4939912 29.8030824,54.8120894 28.1920734,54.8120894 L4.07556252,54.8120894 C2.46455358,54.8120894 1.14645536,53.4939912 1.14645536,51.8829823 L1.14645536,3.07556252 C1.14645536,1.46455358 2.46455358,0.146455358 4.07556252,0.146455358 L28.1920734,0.146455358 C29.8030824,0.146455358 31.1211806,1.46455358 31.1211806,3.07556252 L31.1211806,51.8829823 Z" id="Stroke-1" stroke-linejoin="round"></path>
                <path d="M12.7653447,5.27239289 L19.5025841,5.27239289" id="Stroke-5" stroke-linejoin="round"></path>
                <path d="M1.34631864,10.2158248 L31.0920705,10.3288769" id="Stroke-5" stroke-linejoin="round"></path>
                <path d="M0.625120015,45.7943778 L30.3708718,45.9074299" id="Stroke-5" stroke-linejoin="round"></path>
                <path d="M17.8915752,50.4029923 C17.8915752,51.3742842 17.1045241,52.1607495 16.133818,52.1607495 C15.1634048,52.1607495 14.3763537,51.3736984 14.3763537,50.4029923 C14.3763537,49.4325791 15.1634048,48.645528 16.133818,48.645528 C17.1042312,48.645528 17.8915752,49.4325791 17.8915752,50.4029923 Z" id="Stroke-9" stroke-linejoin="round"></path>
                <path d="M16.1415508,32.5428785 C16.1415508,32.5428785 15.0563166,31.2107206 13.4830932,29.7596409 C11.6649963,28.0821412 9.4470764,25.4307134 11.561013,23.2385696 C14.2405603,20.8838604 16.0946851,24.3305408 16.0946851,24.3305408 C16.0946851,24.3305408 18.1248493,21.0139127 20.6283572,23.2385696 C22.8887492,25.3243868 20.5973086,28.0332251 18.7300028,29.7587622 C17.1740611,31.1951963 16.1415508,32.5428785 16.1415508,32.5428785 Z" id="Stroke-11"></path>
            </g>
            <g id="headphones" transform="translate(83.707963, 77.249538) rotate(-20.000000) translate(-83.707963, -77.249538) translate(41.207963, 37.749538)" stroke="#619AAA" stroke-width="1.5">
                <path d="M77.2934433,75.3462676 C77.2934433,76.9526795 75.9791063,78.2670165 74.3726944,78.2670165 L65.2695963,78.2670165 C63.6631844,78.2670165 62.3488473,76.9526795 62.3488473,75.3462676 L62.3488473,52.4747591 C62.3488473,50.8683472 63.6631844,49.5540102 65.2695963,49.5540102 L74.3726944,49.5540102 C75.9791063,49.5540102 77.2934433,50.8683472 77.2934433,52.4747591 L77.2934433,75.3462676 Z" id="Stroke-1" stroke-linejoin="round"></path>
                <path d="M21.9056168,75.6383425 C21.9056168,77.2447544 20.5912798,78.5590914 18.9848679,78.5590914 L9.8817698,78.5590914 C8.2753579,78.5590914 6.96102088,77.2447544 6.96102088,75.6383425 L6.96102088,52.4747591 C6.96102088,50.8683472 8.2753579,49.5540102 9.8817698,49.5540102 L18.9848679,49.5540102 C20.5912798,49.5540102 21.9056168,50.8683472 21.9056168,52.4747591 L21.9056168,75.6383425 Z" id="Stroke-3" stroke-linejoin="round"></path>
                <path d="M77.2934433,65.0606167 C81.60184,58.4679022 84.1084268,50.5909345 84.1084268,42.1271883 C84.1084268,18.9416993 65.3128233,0.146095861 42.1273343,0.146095861 C18.9415532,0.146095861 0.145949823,18.9416993 0.145949823,42.1271883 C0.145949823,50.5909345 2.65253654,58.4679022 6.96093326,65.0606167 L6.96093326,54.6087167 C5.57562205,50.706012 4.81914808,46.5053909 4.81914808,42.1271883 C4.81914808,21.5227651 21.522327,4.81929412 42.1273343,4.81929412 C62.7323417,4.81929412 79.4352285,21.5227651 79.4352285,42.1271883 C79.4352285,46.5053909 78.6787545,50.706012 77.2934433,54.6087167 L77.2934433,65.0606167 Z" id="Stroke-5"></path>
            </g>
        </g>
    </g>
</svg>