<?xml version="1.0" encoding="UTF-8"?>
<svg width="200px" height="200px" viewBox="0 0 200 200" version="1.1" xmlns="http://www.w3.org/2000/svg" xmlns:xlink="http://www.w3.org/1999/xlink">
    <!-- Generator: Sketch 45.2 (43514) - http://www.bohemiancoding.com/sketch -->
    <title>icon-artists</title>
    <desc>Created with Sketch.</desc>
    <defs></defs>
    <g id="signed-out" stroke="none" stroke-width="1" fill="none" fill-rule="evenodd">
        <g id="icon-artists">
            <g id="artists" transform="translate(46.000000, 38.189999)">
                <circle id="Oval" fill="#B8E986" opacity="0.200000003" cx="54" cy="62.2617188" r="53.5"></circle>
                <g id="guitar-mixer" transform="translate(9.379883, 0.761719)" stroke="#619728" stroke-linejoin="round">
                    <g id="guitar" transform="translate(81.000000, 63.000000) rotate(-343.000000) translate(-81.000000, -63.000000) translate(32.000000, 13.000000)" stroke-width="1.5">
                        <path d="M90.7299232,17.5973066 C90.3040111,17.1726648 88.9722457,16.5336963 88.5463337,16.9586246 C88.1204217,17.3829799 88.7613015,18.7104871 89.1875009,19.1351289 C89.6134129,19.5603438 90.0588674,19.3156447 90.4844921,18.8910029 C90.9106915,18.466361 91.1558352,18.0219484 90.7299232,17.5973066 Z" id="Stroke-1"></path>
                        <path d="M94.1802991,14.1572206 C93.7543871,13.7325788 92.4229091,13.0933238 91.9967097,13.5182521 C91.571085,13.942894 92.2116774,15.2704011 92.6378768,15.695043 C93.0637889,16.1199713 93.5092434,15.8752722 93.9351554,15.4509169 C94.3613548,15.0259885 94.6064985,14.5818625 94.1802991,14.1572206 Z" id="Stroke-3"></path>
                        <path d="M97.6938147,10.654212 C97.2679026,10.2295702 95.936712,9.59002865 95.5102252,10.0155301 C95.0846006,10.4398854 95.725193,11.7673926 96.1513924,12.1920344 C96.5773044,12.6172493 97.0227589,12.3725501 97.4483836,11.9479083 C97.8751578,11.5226934 98.1197267,11.0788539 97.6938147,10.654212 Z" id="Stroke-5"></path>
                        <path d="M80.4097185,7.307851 C80.8353431,7.7322063 81.4762229,9.06 81.0503109,9.48464183 C80.6243988,9.90928367 79.2929208,9.27031519 78.8672962,8.84567335 C78.440522,8.42074499 78.6862405,7.97690544 79.1121525,7.55255014 C79.5380645,7.12762178 79.9835191,6.88292264 80.4097185,7.307851 Z" id="Stroke-7"></path>
                        <path d="M83.8600657,3.86750716 C84.2859777,4.292149 84.9268575,5.61965616 84.5006581,6.04458453 C84.074746,6.46893983 82.743268,5.83025788 82.3176434,5.40561605 C81.8911566,4.98068768 82.1368751,4.53684814 82.5624997,4.1122063 C82.9886991,3.68727794 83.4338663,3.4425788 83.8600657,3.86750716 Z" id="Stroke-9"></path>
                        <path d="M87.3735812,0.364756447 C87.7992059,0.789111748 88.4406604,2.11633238 88.0141736,2.54154728 C87.5882616,2.96618911 86.2567836,2.32750716 85.8308716,1.9025788 C85.4046721,1.47765043 85.6501032,1.03381089 86.0760152,0.609455587 C86.5025021,0.183954155 86.9473818,-0.0601719198 87.3735812,0.364756447 Z" id="Stroke-11"></path>
                        <path d="M26.4597988,77.0615759 L20.643312,71.2624355" id="Stroke-13"></path>
                        <path d="M19.4257842,84.0748997 L13.6092974,78.2754728" id="Stroke-15"></path>
                        <polygon id="Stroke-17" points="30.0454493 72.867937 33.4219947 69.433553 28.3254199 64.3521777 24.8764522 67.7146418"></polygon>
                        <polygon id="Stroke-19" points="79.7608493 13.6236103 80.3580457 14.2210315 37.3935238 56.2817765 41.5146968 60.3909456 83.7406264 17.6032665 84.2401103 18.1029799 97.074949 6.65713467 91.4208375 0.990372493"></polygon>
                        <path d="M4.3679564,66.4091423 C4.09583793,66.7055351 3.83579656,67.0101753 3.5882915,67.3230387 C3.20992429,67.8013208 2.86085445,68.2988204 2.54272252,68.8154508 C-0.196696649,73.2641308 -0.642115195,79.1313314 2.25394252,86.3617192 C4.79274604,92.7001146 15.3175437,102.592092 26.0340305,99.3267622 C36.2616669,96.2104298 38.9559484,87.0141547 39.1145877,77.6390831 C39.0180246,73.0190258 42.4641185,72.8660172 45.7561713,71.8221777 C49.048224,70.7783381 52.8745349,68.1430946 52.1192739,66.2786246 C51.3640129,64.4138682 45.3319836,67.1843553 43.6018956,63.5041261 C42.922793,62.0585673 42.9523941,60.394957 43.1765584,58.7072779 L41.5145818,60.3909456 L37.3934088,56.2817765 L43.3504293,50.4502579 C41.5125701,46.5393696 36.4504821,45.1402292 32.2264235,46.7075645 C31.8681287,46.8404528 31.5338805,46.9978132 31.2212952,47.176659" id="Stroke-21"></path>
                        <path d="M23.59179,90.3624069 C24.0633971,90.8326074 24.0625349,91.593639 23.59179,92.0629799 C23.1207578,92.5320344 22.3574499,92.5323209 21.8861302,92.0626934 C21.4159601,91.593639 21.4159601,90.8323209 21.8864176,90.3626934 C22.3571625,89.893639 23.1210452,89.8933524 23.59179,90.3624069 Z" id="Stroke-23"></path>
                        <path d="M29.4235085,89.3785673 C29.8945408,89.8484814 29.8945408,90.6092264 29.4235085,91.0788539 C28.9527636,91.5481948 28.1891683,91.5481948 27.7181361,91.0788539 C27.2476786,90.6095129 27.2476786,89.8481948 27.7184235,89.3788539 C28.1891683,88.9095129 28.9527636,88.9095129 29.4235085,89.3785673 Z" id="Stroke-25"></path>
                    </g>
                    <g id="mixer" transform="translate(0.000000, 15.000000)">
                        <path d="M64.9109558,47.9704006 C64.9109558,49.5374397 63.616708,50.8195626 62.0348496,50.8195626 L3.02002655,50.8195626 C1.43816814,50.8195626 0.143920354,49.5374397 0.143920354,47.9704006 L0.143920354,2.91717151 C0.143920354,1.3501324 1.43816814,0.0680094972 3.02002655,0.0680094972 L62.0348496,0.0680094972 C63.616708,0.0680094972 64.9109558,1.3501324 64.9109558,2.91717151 L64.9109558,47.9704006 Z" id="Stroke-27" stroke-width="1.5"></path>
                        <path d="M6.77964381,16.4927447 C6.77964381,17.2369458 6.17105973,17.8389737 5.42068363,17.8389737 C4.67059513,17.8389737 4.06229867,17.236376 4.06229867,16.4927447 C4.06229867,15.7502531 4.67059513,15.1470855 5.42068363,15.1470855 C6.17105973,15.1470855 6.77964381,15.7502531 6.77964381,16.4927447 Z" id="Stroke-33" stroke-width="1.5"></path>
                        <path d="M6.77964381,21.8593978 C6.77964381,22.603314 6.17105973,23.2053419 5.42068363,23.2053419 C4.67059513,23.2053419 4.06229867,22.6030291 4.06229867,21.8593978 C4.06229867,21.1166212 4.67059513,20.5137385 5.42068363,20.5137385 C6.17105973,20.5137385 6.77964381,21.1166212 6.77964381,21.8593978 Z" id="Stroke-35" stroke-width="1.5"></path>
                        <path d="M6.77964381,27.3034056 C6.77964381,28.0473218 6.17105973,28.6493497 5.42068363,28.6493497 C4.67059513,28.6493497 4.06229867,28.0470369 4.06229867,27.3034056 C4.06229867,26.5606291 4.67059513,25.9577464 5.42068363,25.9577464 C6.17105973,25.9577464 6.77964381,26.5606291 6.77964381,27.3034056 Z" id="Stroke-37" stroke-width="1.5"></path>
                        <path d="M14.3302566,16.4927447 C14.3302566,17.2369458 13.7216726,17.8389737 12.9710088,17.8389737 C12.221208,17.8389737 11.6126239,17.236376 11.6126239,16.4927447 C11.6126239,15.7502531 12.221208,15.1470855 12.9710088,15.1470855 C13.721385,15.1470855 14.3302566,15.7502531 14.3302566,16.4927447 Z" id="Stroke-43" stroke-width="1.5"></path>
                        <path d="M14.3302566,21.8593978 C14.3302566,22.603314 13.7216726,23.2053419 12.9710088,23.2053419 C12.221208,23.2053419 11.6126239,22.6030291 11.6126239,21.8593978 C11.6126239,21.1166212 12.221208,20.5137385 12.9710088,20.5137385 C13.721385,20.5137385 14.3302566,21.1166212 14.3302566,21.8593978 Z" id="Stroke-45" stroke-width="1.5"></path>
                        <path d="M14.3302566,27.3034056 C14.3302566,28.0473218 13.7216726,28.6493497 12.9710088,28.6493497 C12.221208,28.6493497 11.6126239,28.0470369 11.6126239,27.3034056 C11.6126239,26.5606291 12.221208,25.9577464 12.9710088,25.9577464 C13.721385,25.9577464 14.3302566,26.5606291 14.3302566,27.3034056 Z" id="Stroke-47" stroke-width="1.5"></path>
                        <path d="M21.8805819,16.4927447 C21.8805819,17.2369458 21.2719978,17.8389737 20.5216217,17.8389737 C19.7715332,17.8389737 19.1632367,17.236376 19.1632367,16.4927447 C19.1632367,15.7502531 19.7715332,15.1470855 20.5216217,15.1470855 C21.2717102,15.1470855 21.8805819,15.7502531 21.8805819,16.4927447 Z" id="Stroke-53" stroke-width="1.5"></path>
                        <path d="M21.8805819,21.8593978 C21.8805819,22.603314 21.2719978,23.2053419 20.5216217,23.2053419 C19.7715332,23.2053419 19.1632367,22.6030291 19.1632367,21.8593978 C19.1632367,21.1166212 19.7715332,20.5137385 20.5216217,20.5137385 C21.2717102,20.5137385 21.8805819,21.1166212 21.8805819,21.8593978 Z" id="Stroke-55" stroke-width="1.5"></path>
                        <path d="M21.8805819,27.3034056 C21.8805819,28.0473218 21.2719978,28.6493497 20.5216217,28.6493497 C19.7715332,28.6493497 19.1632367,28.0470369 19.1632367,27.3034056 C19.1632367,26.5606291 19.7715332,25.9577464 20.5216217,25.9577464 C21.2717102,25.9577464 21.8805819,26.5606291 21.8805819,27.3034056 Z" id="Stroke-57" stroke-width="1.5"></path>
                        <path d="M5,46.2981989 L5,33.0572883" id="Stroke-29" stroke-width="1.5"></path>
                        <path d="M13,46.2981989 L13,33.0572883" id="Stroke-39" stroke-width="1.5"></path>
                        <path d="M20,46.2981989 L20,33.0572883" id="Stroke-49" stroke-width="1.5"></path>
                        <path d="M28,46.2981989 L28,33.0572883" id="Stroke-59" stroke-width="1.5"></path>
                        <path d="M35,46.2981989 L35,33.0572883" id="Stroke-69" stroke-width="1.5"></path>
                        <path d="M5.17699115,36.2799469 L5.17699115,33.0572598" id="Stroke-31" stroke-width="2"></path>
                        <path d="M13.1045133,39.6778006 L13.1045133,36.4551134" id="Stroke-41" stroke-width="2"></path>
                        <path d="M20.6221362,41.2890872 L20.6221362,38.0664" id="Stroke-51" stroke-width="2"></path>
                        <path d="M28.2961991,37.8912335 L28.2961991,34.6685464" id="Stroke-61" stroke-width="2"></path>
                        <path d="M35.222229,41.823305 L35.222229,38.6006179" id="Stroke-71" stroke-width="2"></path>
                        <path d="M29.4309358,16.4927447 C29.4309358,17.2369458 28.8223518,17.8389737 28.0719757,17.8389737 C27.3221748,17.8389737 26.7135907,17.236376 26.7135907,16.4927447 C26.7135907,15.7502531 27.3221748,15.1470855 28.0719757,15.1470855 C28.8223518,15.1470855 29.4309358,15.7502531 29.4309358,16.4927447 Z" id="Stroke-63" stroke-width="1.5"></path>
                        <path d="M29.4309358,21.8593978 C29.4309358,22.603314 28.8223518,23.2053419 28.0719757,23.2053419 C27.3221748,23.2053419 26.7135907,22.6030291 26.7135907,21.8593978 C26.7135907,21.1166212 27.3221748,20.5137385 28.0719757,20.5137385 C28.8223518,20.5137385 29.4309358,21.1166212 29.4309358,21.8593978 Z" id="Stroke-65" stroke-width="1.5"></path>
                        <path d="M29.4309358,27.3034056 C29.4309358,28.0473218 28.8223518,28.6493497 28.0719757,28.6493497 C27.3221748,28.6493497 26.7135907,28.0470369 26.7135907,27.3034056 C26.7135907,26.5606291 27.3221748,25.9577464 28.0719757,25.9577464 C28.8223518,25.9577464 29.4309358,26.5606291 29.4309358,27.3034056 Z" id="Stroke-67" stroke-width="1.5"></path>
                        <path d="M58.4459004,45 L61.1390863,45" id="Stroke-73" stroke-width="3"></path>
                        <path d="M54.6932146,45 L57.3864004,45" id="Stroke-75" stroke-width="3"></path>
                        <path d="M50.9407876,45 L53.6339735,45" id="Stroke-77" stroke-width="3"></path>
                        <path d="M58.4459004,41 L61.1390863,41" id="Stroke-79" stroke-width="3"></path>
                        <path d="M54.6932146,41 L57.3864004,41" id="Stroke-81" stroke-width="3"></path>
                        <path d="M50.9407876,41 L53.6339735,41" id="Stroke-83" stroke-width="3"></path>
                        <path d="M36.8911239,21.8593978 C36.8911239,22.603314 36.2825398,23.2053419 35.5321637,23.2053419 C34.7820752,23.2053419 34.1737788,22.6030291 34.1737788,21.8593978 C34.1737788,21.1166212 34.7820752,20.5137385 35.5321637,20.5137385 C36.2822522,20.5137385 36.8911239,21.1166212 36.8911239,21.8593978 Z" id="Stroke-85" stroke-width="1.5"></path>
                        <path d="M36.8911239,27.3034056 C36.8911239,28.0473218 36.2825398,28.6493497 35.5321637,28.6493497 C34.7820752,28.6493497 34.1737788,28.0470369 34.1737788,27.3034056 C34.1737788,26.5606291 34.7820752,25.9577464 35.5321637,25.9577464 C36.2822522,25.9577464 36.8911239,26.5606291 36.8911239,27.3034056 Z" id="Stroke-87" stroke-width="1.5"></path>
                        <path d="M14.7928496,10.1580888 C14.7928496,10.4019771 14.5932478,10.5999939 14.3467655,10.5999939 L3.41008407,10.5999939 C3.16360177,10.5999939 2.964,10.4019771 2.964,10.1580888 L2.964,3.08646872 C2.964,2.84229553 3.16360177,2.64427877 3.41008407,2.64427877 L14.3467655,2.64427877 C14.5932478,2.64427877 14.7928496,2.84229553 14.7928496,3.08646872 L14.7928496,10.1580888 Z" id="Stroke-89" stroke-width="1.5"></path>
                        <path d="M30.397969,10.1580888 C30.397969,10.4019771 30.1983673,10.5999939 29.9515973,10.5999939 L19.0152035,10.5999939 C18.7684336,10.5999939 18.5688319,10.4019771 18.5688319,10.1580888 L18.5688319,3.08646872 C18.5688319,2.84229553 18.7684336,2.64427877 19.0152035,2.64427877 L29.9515973,2.64427877 C30.1983673,2.64427877 30.397969,2.84229553 30.397969,3.08646872 L30.397969,10.1580888 Z" id="Stroke-91" stroke-width="1.5"></path>
                        <path d="M46.0028009,10.1580888 C46.0028009,10.4019771 45.8029115,10.5999939 45.5564292,10.5999939 L34.6197478,10.5999939 C34.3732655,10.5999939 34.1736637,10.4019771 34.1736637,10.1580888 L34.1736637,3.08646872 C34.1736637,2.84229553 34.3732655,2.64427877 34.6197478,2.64427877 L45.5564292,2.64427877 C45.8029115,2.64427877 46.0028009,2.84229553 46.0028009,3.08646872 L46.0028009,10.1580888 Z" id="Stroke-93" stroke-width="1.5"></path>
                        <path d="M61.6076615,28.4884291 C61.6076615,28.9007028 61.2613783,29.2351944 60.8337013,29.2351944 L41.8629049,29.2351944 C41.4352279,29.2351944 41.0889447,28.9007028 41.0889447,28.4884291 L41.0889447,16.5396134 C41.0889447,16.1270547 41.4352279,15.7925631 41.8629049,15.7925631 L60.8337013,15.7925631 C61.2613783,15.7925631 61.6076615,16.1270547 61.6076615,16.5396134 L61.6076615,28.4884291 Z" id="Stroke-95" stroke-width="1.5"></path>
                        <path d="M61.6076615,10.1580888 C61.6076615,10.4019771 61.4080597,10.5999939 61.1615774,10.5999939 L50.224896,10.5999939 C49.9784137,10.5999939 49.7788119,10.4019771 49.7788119,10.1580888 L49.7788119,3.08646872 C49.7788119,2.84229553 49.9784137,2.64427877 50.224896,2.64427877 L61.1615774,2.64427877 C61.4080597,2.64427877 61.6076615,2.84229553 61.6076615,3.08646872 L61.6076615,10.1580888 Z" id="Stroke-97" stroke-width="1.5"></path>
                        <path d="M61.1509646,35.8920905 C61.1509646,36.6360067 60.5423805,37.2383196 59.7920044,37.2383196 C59.0419159,37.2383196 58.4336195,36.6357218 58.4336195,35.8920905 C58.4336195,35.149314 59.0419159,34.5464313 59.7920044,34.5464313 C60.5423805,34.5464313 61.1509646,35.149314 61.1509646,35.8920905 Z" id="Stroke-99" stroke-width="1.5"></path>
                        <path d="M4.79136283,6.29029441 L9.10120796,10.378557" id="Stroke-101" stroke-width="1.5"></path>
                        <path d="M23.0321748,5.29587989 L25.1869535,10.3785" id="Stroke-103" stroke-width="1.5"></path>
                        <path d="M40.0882611,5.29587989 L41.2726416,10.3785" id="Stroke-105" stroke-width="1.5"></path>
                        <path d="M55.2035509,5.84816145 L57.3583296,10.3783291" id="Stroke-107" stroke-width="1.5"></path>
                    </g>
                </g>
            </g>
        </g>
    </g>
</svg>